<?xml version="1.0" encoding="utf-8"?>
<!-- Generator: Adobe Illustrator 16.0.0, SVG Export Plug-In . SVG Version: 6.00 Build 0)  -->
<!DOCTYPE svg PUBLIC "-//W3C//DTD SVG 1.1//EN" "http://www.w3.org/Graphics/SVG/1.1/DTD/svg11.dtd">
<svg version="1.1" id="Layer_1" xmlns="http://www.w3.org/2000/svg" xmlns:xlink="http://www.w3.org/1999/xlink" x="0px" y="0px"
	 width="503px" height="126px" viewBox="0 0 503 126" enable-background="new 0 0 503 126" xml:space="preserve">
<path fill="#FFFFFF" d="M40.472,95.867V26.182c0-2.034-1.808-3.953-4.178-3.953H25.675c-1.808,0-3.386,1.581-3.386,3.5
	c0,1.92,1.578,3.502,3.386,3.502h7.343v69.685c0,2.033,1.808,3.953,4.179,3.953h10.616c1.808,0,3.389-1.581,3.389-3.502
	c0-1.919-1.581-3.5-3.389-3.5H40.472z M76.612,47.528c0-2.034-1.808-3.953-4.178-3.953H61.591c-1.807,0-3.388,1.581-3.388,3.5
	c0,1.92,1.581,3.502,3.388,3.502h7.568v45.29h-7.568c-1.807,0-3.388,1.581-3.388,3.5c0,1.921,1.581,3.502,3.388,3.502h22.136
	c1.808,0,3.391-1.581,3.391-3.502c0-1.919-1.583-3.5-3.391-3.5h-7.114V47.528z M67.352,26.972c0,3.049,2.146,5.421,5.195,5.421
	c3.05,0,5.195-2.372,5.195-5.421c0-3.05-2.146-5.422-5.195-5.422C69.498,21.55,67.352,23.922,67.352,26.972z M190.795,68.422
	c0-15.925-7.228-25.865-22.136-25.865c-8.472,0-16.716,5.31-19.99,13.555c-3.275-9.148-9.489-13.555-18.976-13.555
	c-8.243,0-14.231,4.406-17.731,10.956l-0.112-5.985c0-2.034-1.808-3.953-4.18-3.953H97.279c-1.808,0-3.389,1.581-3.389,3.5
	c0,1.92,1.581,3.502,3.389,3.502h7.341v45.29h-7.341c-1.808,0-3.389,1.581-3.389,3.5c0,1.921,1.581,3.502,3.389,3.502h22.136
	c1.807,0,3.39-1.581,3.39-3.502c0-1.919-1.583-3.5-3.39-3.5h-7.34v-23.38c0-4.065,0.225-7.792,1.131-11.067
	c2.031-7.115,6.888-11.633,15.133-11.633c9.825,0,15.7,6.211,15.7,18.974v30.044c0,2.37,1.805,4.065,3.953,4.065h10.276
	c1.919,0,3.614-1.581,3.614-3.276c0-1.92-1.695-3.727-3.614-3.727h-6.776V67.18c0-10.617,7.115-17.393,16.376-17.393
	c9.262,0,15.474,6.211,15.474,18.974v30.044c0,2.37,1.807,4.065,3.952,4.065h10.278c1.92,0,3.613-1.581,3.613-3.276
	c0-1.92-1.693-3.727-3.613-3.727h-6.777V68.422z M233.148,102.87c1.808,0,3.386-1.581,3.386-3.502c0-1.919-1.578-3.5-3.386-3.5
	h-7.343V71.81c0-6.438,0.113-11.18,4.63-16.375c3.39-3.841,8.359-5.648,13.555-5.648c5.986,0,11.52,2.258,14.569,7.567
	c2.936,4.856,2.597,10.502,2.597,16.037v25.414c0,2.37,1.807,4.065,3.953,4.065h10.278c1.92,0,3.614-1.581,3.614-3.276
	c0-1.92-1.694-3.727-3.614-3.727h-6.776V70.68c0-7.565-0.338-14.229-5.533-20.328c-4.633-5.422-10.503-7.794-17.619-7.794
	c-8.584,0-15.701,4.18-19.653,11.633v-6.662c0-2.034-1.808-3.953-4.178-3.953h-10.617c-1.808,0-3.389,1.581-3.389,3.5
	c0,1.92,1.581,3.502,3.389,3.502h7.341v45.29h-7.341c-1.808,0-3.389,1.581-3.389,3.5c0,1.921,1.581,3.502,3.389,3.502H233.148z
	 M306.445,104.45c17.393,0,31.06-14.117,31.06-31.398c0-16.716-14.005-30.495-30.835-30.495c-17.279,0-31.284,13.779-31.284,31.06
	C275.386,90.56,289.278,104.45,306.445,104.45z M306.445,97.109c-13.216,0-23.606-10.841-23.606-23.718
	c0-12.987,10.617-23.492,23.719-23.492s23.491,10.731,23.491,23.606C330.049,86.492,319.547,97.109,306.445,97.109z M374.886,85.703
	c-1.469,3.838-3.388,9.034-3.388,9.034s-1.92-5.195-3.276-9.034l-14.568-39.417c-0.679-1.695-1.582-2.711-3.049-2.711h-10.053
	c-1.694,0-3.163,1.693-3.163,3.5c0,1.695,1.469,3.502,3.163,3.502h6.551l19.539,50.938c0.338,0.903,1.694,2.935,4.63,2.935
	c3.164,0,4.519-2.032,4.856-2.935l19.427-50.938h6.55c1.695,0,3.275-1.807,3.275-3.502c0-1.807-1.58-3.5-3.275-3.5h-9.711
	c-1.356,0-2.486,1.016-3.164,2.711L374.886,85.703z M460.836,95.867c-0.227,0-0.453,0.226-24.171,0.226
	c-9.035,0-15.698-3.388-19.879-9.263l44.953-23.266c1.805-0.903,2.823-2.935,1.467-5.195c-5.081-8.695-14.795-15.812-27.106-15.812
	c-18.183,0-31.284,14.683-31.284,30.721c0,17.167,14.344,29.93,31.511,29.817c23.718-0.226,24.283-0.226,24.51-0.226
	c1.808,0,3.388-1.581,3.388-3.502C464.224,97.448,462.644,95.867,460.836,95.867z M412.269,73.278
	c0-12.989,10.617-23.38,23.719-23.38c9.375,0,16.15,5.422,19.088,9.714l-41.338,21.346
	C412.607,78.586,412.269,75.989,412.269,73.278z M470.209,97.674c0,3.162,2.145,5.646,5.307,5.646c2.938,0,5.195-2.485,5.195-5.646
	s-2.258-5.648-5.195-5.648C472.354,92.026,470.209,94.512,470.209,97.674z"/>
<g>
</g>
<g>
</g>
<g>
</g>
<g>
</g>
<g>
</g>
<g>
</g>
</svg>
