<?xml version="1.0" encoding="utf-8"?>
<!-- Generator: Adobe Illustrator 16.0.0, SVG Export Plug-In . SVG Version: 6.00 Build 0)  -->
<!DOCTYPE svg PUBLIC "-//W3C//DTD SVG 1.1//EN" "http://www.w3.org/Graphics/SVG/1.1/DTD/svg11.dtd">
<svg version="1.1" id="Layer_1" xmlns="http://www.w3.org/2000/svg" xmlns:xlink="http://www.w3.org/1999/xlink" x="0px" y="0px"
	 width="498px" height="600px" viewBox="0 0 498 600" enable-background="new 0 0 498 600" xml:space="preserve">
<g>
	<g>
		<g>
			<path fill="#FFFFFF" d="M130.352,588.264h2.094v-12.832h-2.094V588.264z M118.927,548.543l-10.696-27.639h-6.896l14.751,36.217
				h5.477l14.755-36.217h-6.744L118.927,548.543z M219.336,580.645h-10.129v-5.213h-2.096v12.832h2.096v-5.707h10.129v5.707h2.096
				v-12.832h-2.096V580.645z M150.226,581.831c-0.758-0.58-1.926-0.979-3.51-1.186c-0.56-0.072-1.712-0.17-3.459-0.289
				c-1.188-0.07-2.043-0.197-2.567-0.385c-0.734-0.262-1.1-0.678-1.1-1.244c0-0.545,0.342-0.971,1.028-1.275
				c0.689-0.309,1.679-0.457,2.971-0.457c1.944,0,3.853,0.48,5.73,1.447l1.272-1.432c-1.838-1.266-4.121-1.898-6.846-1.898
				c-2.026,0-3.597,0.35-4.705,1.047c-1.114,0.697-1.671,1.646-1.671,2.855c0,1.168,0.491,2,1.47,2.496
				c0.836,0.426,2.297,0.715,4.382,0.852c2.352,0.152,3.798,0.303,4.333,0.443c1.023,0.273,1.536,0.813,1.536,1.631
				c0,0.697-0.391,1.246-1.171,1.646c-0.815,0.418-1.962,0.623-3.439,0.623c-2.283,0-4.415-0.615-6.394-1.844l-1.152,1.543
				c1.793,1.443,4.303,2.158,7.528,2.158c2.224,0,3.931-0.369,5.117-1.115c1.188-0.742,1.78-1.795,1.78-3.152
				C151.36,583.231,150.983,582.409,150.226,581.831z M172.616,588.264h2.097v-12.832h-2.097V588.264z M187.969,576.973
				c2.305,0,4.099,0.689,5.38,2.076l1.901-0.693c-1.686-2.221-4.114-3.332-7.281-3.332c-2.2,0-4.045,0.574-5.536,1.717
				c-1.711,1.316-2.568,3.006-2.568,5.072c0,2.104,0.846,3.805,2.533,5.105c1.479,1.133,3.336,1.701,5.571,1.701
				c1.596,0,2.966-0.24,4.114-0.717c1.146-0.48,2.174-1.258,3.082-2.332l-1.801-1.012c-1.28,1.404-3.037,2.109-5.272,2.109
				c-1.853,0-3.322-0.443-4.411-1.338c-1.088-0.895-1.632-2.064-1.632-3.518c0-1.408,0.548-2.566,1.65-3.473
				C184.8,577.426,186.224,576.973,187.969,576.973z M154.417,577.348h6.044v10.916h2.097v-10.916h6.042v-1.916h-14.183V577.348z
				 M355.931,268.75L227.043,11.37h-70.55l164.164,327.822L355.931,268.75z M34.412,548.543l-10.697-27.639H16.82l14.752,36.217
				h5.476l14.754-36.217h-6.743L34.412,548.543z M164.149,556.866v-35.961h-6.185v35.961H164.149z M249.918,520.905h-5.767v35.961
				h6.185V531.28l19.531,25.586h5.211v-35.961h-6.183v24.863L249.918,520.905z M287.125,406.157L89.425,11.37H15.6l234.61,468.5
				L287.125,406.157z M79.635,520.905H73.45v35.961h6.185V520.905z M116.568,575.432h-2.095v12.832h11.859v-1.914h-9.765V575.432z
				 M106.788,576.76c-1.49-1.156-3.335-1.736-5.536-1.736c-2.188,0-4.041,0.58-5.553,1.736c-1.724,1.324-2.586,3.014-2.586,5.07
				c0,2.09,0.851,3.787,2.55,5.088c1.491,1.145,3.354,1.717,5.589,1.717c2.213,0,4.063-0.568,5.555-1.701
				c1.698-1.301,2.549-3.002,2.549-5.104C109.355,579.774,108.502,578.084,106.788,576.76z M105.559,585.338
				c-1.078,0.902-2.514,1.348-4.307,1.348c-1.804,0-3.247-0.445-4.33-1.336c-1.083-0.895-1.624-2.066-1.624-3.52
				c0-1.408,0.553-2.568,1.657-3.482c1.106-0.914,2.54-1.375,4.297-1.375c1.608,0,2.953,0.402,4.035,1.205
				c1.257,0.934,1.886,2.152,1.886,3.652C107.173,583.272,106.635,584.444,105.559,585.338z M85.9,580.645h-10.13v-5.213h-2.096
				v12.832h2.096v-5.707H85.9v5.707h2.096v-12.832H85.9V580.645z M446.272,88.356l0.13-0.252c-0.055,0.06-0.11,0.122-0.165,0.181
				L446.272,88.356z M398.916,582.557h7.409v-1.912h-7.409v-3.297h10.657v-1.916h-12.751v12.832h13.238v-1.914h-11.145V582.557z
				 M378.623,577.348h6.041v10.916h2.1v-10.916h6.041v-1.916h-14.182V577.348z M386.007,556.866l-15.614-36.219h-5.781
				l-15.615,36.219h6.389l3.65-8.684h16.78l3.599,8.684H386.007z M361.314,542.581L367.4,528.2l6.135,14.381H361.314z
				 M372.512,585.959l-9.661-10.527h-2.604v12.832h2.096v-10.523l9.656,10.523h2.606v-12.832h-2.094V585.959z M344.389,582.557
				h7.407v-1.912h-7.407v-3.297h10.657v-1.916h-12.751v12.832h13.238v-1.914h-11.145V582.557z M484.831,11.366h-65.72
				c22.216,3.44,39.22,22.609,39.22,45.748c0,3.044-0.302,6.015-0.867,8.898L484.831,11.366z M431.256,541.786
				c1.028-0.629,1.915-1.402,2.658-2.311c0.745-0.906,1.328-1.949,1.753-3.133c0.421-1.18,0.634-2.512,0.634-3.984v-0.102
				c0-1.576-0.255-3.014-0.764-4.316c-0.504-1.301-1.232-2.445-2.177-3.441c-1.15-1.127-2.588-2.01-4.309-2.643
				c-1.725-0.633-3.702-0.951-5.936-0.951h-15.815v35.961h6.183v-12.535h7.834l8.746,12.535h7.353l-9.582-13.615
				C429.083,542.909,430.224,542.42,431.256,541.786z M413.483,538.729V526.61h9.105c2.339,0,4.151,0.502,5.438,1.52
				c1.292,1.016,1.934,2.504,1.934,4.463v0.1c0,1.861-0.66,3.328-1.979,4.416c-1.323,1.08-3.104,1.621-5.34,1.621H413.483z
				 M428.086,582.096c0.614-0.66,0.926-1.535,0.926-2.623c0-1.244-0.377-2.223-1.139-2.953c-0.756-0.723-1.794-1.088-3.126-1.088
				h-9.973v12.832h2.096v-4.893h6.384l3.423,4.893h2.438l-3.388-4.998C426.729,583.098,427.516,582.711,428.086,582.096z
				 M416.87,581.459v-4.111h7.373c1.744,0,2.618,0.709,2.618,2.125c0,1.324-0.807,1.986-2.426,1.986H416.87z M307.8,580.645h-10.13
				v-5.213h-2.096v12.832h2.096v-5.707h10.13v5.707h2.095v-12.832H307.8V580.645z M329.947,576.973c2.304,0,4.097,0.689,5.38,2.076
				l1.901-0.693c-1.689-2.221-4.115-3.332-7.281-3.332c-2.201,0-4.048,0.574-5.537,1.717c-1.712,1.316-2.567,3.006-2.567,5.072
				c0,2.104,0.844,3.805,2.533,5.105c1.477,1.133,3.336,1.701,5.571,1.701c1.596,0,2.965-0.24,4.112-0.717
				c1.146-0.48,2.173-1.258,3.083-2.332l-1.8-1.012c-1.28,1.404-3.04,2.109-5.272,2.109c-1.855,0-3.324-0.443-4.411-1.338
				c-1.091-0.895-1.635-2.064-1.635-3.518c0-1.408,0.551-2.566,1.65-3.473C326.777,577.426,328.198,576.973,329.947,576.973z
				 M229.311,582.557h7.405v-1.912h-7.405v-3.297h10.653v-1.916h-12.75v12.832h13.24v-1.914h-11.144V582.557z M265.358,575.432
				h-2.095v12.832h11.857v-1.914h-9.763V575.432z M250.007,575.432l-6.689,12.832h2.292l1.456-2.871h8.519l1.457,2.871h2.292
				l-6.691-12.832H250.007z M248.084,583.475l3.261-6.213l3.224,6.213H248.084z M277.374,577.348h6.045v10.916h2.095v-10.916h6.046
				v-1.916h-14.186V577.348z M327.475,553.758c0.996-0.771,1.954-1.654,2.863-2.646L326.333,547
				c-1.521,1.441-3.057,2.58-4.612,3.418c-1.555,0.84-3.414,1.262-5.576,1.262c-1.69,0-3.253-0.338-4.691-1.006
				c-1.437-0.664-2.677-1.582-3.724-2.748c-1.048-1.162-1.859-2.523-2.435-4.084c-0.574-1.559-0.862-3.211-0.862-4.959v-0.102
				c0-1.744,0.288-3.391,0.862-4.93c0.575-1.541,1.387-2.889,2.435-4.033c1.047-1.146,2.287-2.057,3.724-2.721
				c1.438-0.67,3.001-1.006,4.691-1.006c2.027,0,3.836,0.414,5.422,1.234c1.592,0.82,3.097,1.902,4.514,3.234l4.007-4.672
				c-0.848-0.824-1.741-1.576-2.687-2.262c-0.95-0.686-1.978-1.275-3.095-1.771c-1.115-0.496-2.341-0.883-3.676-1.158
				c-1.335-0.271-2.812-0.41-4.434-0.41c-2.706,0-5.171,0.49-7.404,1.465c-2.229,0.973-4.163,2.313-5.793,4.006
				c-1.635,1.693-2.903,3.666-3.805,5.906c-0.901,2.246-1.354,4.65-1.354,7.219v0.104c0,2.57,0.462,4.982,1.378,7.242
				c0.922,2.26,2.19,4.221,3.805,5.883c1.615,1.662,3.521,2.975,5.719,3.932c2.197,0.961,4.596,1.441,7.197,1.441
				c1.66,0,3.173-0.15,4.542-0.439c1.367-0.291,2.627-0.721,3.777-1.287C325.402,555.196,326.478,554.526,327.475,553.758z
				 M201.464,520.647l-15.615,36.219h6.388l3.65-8.684h16.781l3.599,8.684h6.592l-15.615-36.219H201.464z M198.167,542.581
				l6.085-14.381l6.134,14.381H198.167z M465.35,551.163v-9.605h17.797v-5.701H465.35v-9.246h20.076v-5.705h-26.263v35.961h26.519
				v-5.703H465.35z"/>
		</g>
	</g>
</g>
</svg>
