<?xml version="1.0" encoding="utf-8"?>
<!-- Generator: Adobe Illustrator 21.1.0, SVG Export Plug-In . SVG Version: 6.00 Build 0)  -->
<svg version="1.1" id="Layer_1" xmlns="http://www.w3.org/2000/svg" xmlns:xlink="http://www.w3.org/1999/xlink" x="0px" y="0px"
	 viewBox="0 0 972.4 982.2" style="enable-background:new 0 0 972.4 982.2;" xml:space="preserve">
<style type="text/css">
	.st0{fill:#FFFFFF;}
	.st1{fill-rule:evenodd;clip-rule:evenodd;fill:#FFFFFF;}
	.st2{fill:none;}
	.st3{font-family:'BebasNeueBold';}
	.st4{font-size:142.5479px;}
</style>
<rect x="323.6" y="798.4" class="st2" width="325.2" height="142.4"/>
<text transform="matrix(1 0 0 1 347.2158 898.1375)" class="st0 st3 st4">10min</text>
<g>
	<path class="st2" d="M504,364.8c-14.5-15.8-20.9-16-35.1-0.5c-21.2,23.1-41.9,46.7-63.8,69.1c-25.9,26.6-31.2,58.4-27.2,94.2
		c72.1,0,143.7,0,216.5,0c4.4-37.7-2.4-70.1-29.5-97C543.7,409.6,524.2,386.8,504,364.8z M569.8,516.8c-55.8,0-111.1,0-167.2,0
		c-3.5-29.1,1.9-53.9,22.7-74.8c16.8-16.9,32.3-35,48.5-52.5c9.1-9.8,15.2-10,24.1-0.4c18.2,19.7,36.4,39.4,54.4,59.2
		C570.1,467.9,572.5,491.3,569.8,516.8z"/>
	<path class="st2" d="M502.1,321.2c21-22.6,41-46.1,62.8-68c26.9-27,34-59.1,29.4-96.8c-72.6,0-144.2,0-216.4,0
		c-3.5,33-0.3,63.3,22.6,88.6c23.3,25.7,46.8,51.2,70.4,76.7C482.4,334.1,490.4,333.9,502.1,321.2z M544.4,253.8
		c-15.8,16.1-30.5,33.2-45.9,49.8c-9.1,9.8-15.2,10-24.1,0.4c-15.5-16.6-30.8-33.4-46.1-50.2H544.4z"/>
	<path class="st0" d="M497.9,389.1c-8.9-9.6-15-9.4-24.1,0.4c-16.2,17.5-31.7,35.7-48.5,52.5c-20.8,20.8-26.3,45.7-22.7,74.8
		c56.1,0,111.4,0,167.2,0c2.7-25.5,0.2-48.9-17.5-68.4C534.3,428.5,516.2,408.8,497.9,389.1z"/>
	<path class="st0" d="M498.5,303.6c15.3-16.5,30.1-33.7,45.9-49.8H428.3c15.3,16.8,30.7,33.5,46.1,50.2
		C483.3,313.6,489.4,313.4,498.5,303.6z"/>
	<path class="st0" d="M617.5,529.2c-0.2-3.9-0.7-6.8-0.5-9.5c4.1-45.2-12.7-81.6-44.7-112.9c-20.8-20.4-39.7-42.9-59.9-64.9
		c24-25.8,47-50.6,70.1-75.2c23.2-24.7,35.7-53.5,34.4-87.8c-0.3-7.5,0-15,0-22.2c20.3-2.7,20.5-3,20.6-22c0-4.8,0-9.7,0-14.5
		c0-23.7,0-23.7-24.5-23.7c-80.1,0-160.3-0.1-240.4,0c-42.5,0-37.3-4-38,38.1c-0.2,13.9,2.7,23.1,21,21.3c0,6.5,0.3,11.3,0,16
		c-2.9,39.7,11.7,72.3,39.2,100.4C417,295,437.9,319,459.9,343c-24,26.2-47.5,51.8-71,77.3c-22.2,24.1-34.6,52-33.4,85.2
		c0.3,8,0,16,0,24.8c-18.4-2-22.1,7.3-20.9,21.1c0.5,5.7,0,11.6,0.1,17.4c0.2,18.3,1.3,19.3,20.1,19.4c82.1,0,164.2,0.1,246.2,0
		c40.9-0.1,35.8,4.9,36.8-36.1C638.2,537.3,635.9,527,617.5,529.2z M400.5,245.1c-22.9-25.2-26.1-55.6-22.6-88.6
		c72.2,0,143.8,0,216.4,0c4.6,37.6-2.5,69.8-29.4,96.8c-21.8,21.8-41.8,45.3-62.8,68c-11.8,12.7-19.7,12.9-31.2,0.5
		C447.3,296.3,423.8,270.8,400.5,245.1z M594.4,527.7c-72.7,0-144.4,0-216.5,0c-4-35.9,1.3-67.7,27.2-94.2
		c21.9-22.5,42.5-46.1,63.8-69.1c14.3-15.5,20.6-15.4,35.1,0.5c20.2,22,39.7,44.8,60.9,65.9C592,457.6,598.8,489.9,594.4,527.7z"/>
</g>
</svg>
